<svg width="40" height="40" viewBox="0 0 40 40" fill="none" xmlns="http://www.w3.org/2000/svg">
<path d="M33.3244 16.6623C33.3244 24.9818 24.0952 33.6461 20.996 36.3221C20.7073 36.5392 20.3559 36.6566 19.9946 36.6566C19.6334 36.6566 19.2819 36.5392 18.9932 36.3221C15.894 33.6461 6.66479 24.9818 6.66479 16.6623C6.66479 13.127 8.06918 9.7365 10.569 7.23667C13.0688 4.73685 16.4593 3.33246 19.9946 3.33246C23.5299 3.33246 26.9204 4.73685 29.4202 7.23667C31.9201 9.7365 33.3244 13.127 33.3244 16.6623Z" stroke="#0088CC" stroke-width="3.33246" stroke-linecap="round" stroke-linejoin="round"/>
<path d="M19.9948 21.6609C22.7555 21.6609 24.9935 19.423 24.9935 16.6623C24.9935 13.9016 22.7555 11.6636 19.9948 11.6636C17.2341 11.6636 14.9961 13.9016 14.9961 16.6623C14.9961 19.423 17.2341 21.6609 19.9948 21.6609Z" stroke="#0088CC" stroke-width="3.33246" stroke-linecap="round" stroke-linejoin="round"/>
</svg>
